<svg xmlns="http://www.w3.org/2000/svg" viewBox="0 0 1920 1080" preserveAspectRatio="xMidYMid slice">
  <defs>
    <!-- Slight blur for organic softness -->
    <filter id="soft" x="-20%" y="-20%" width="140%" height="140%">
      <feGaussianBlur stdDeviation="0.5" />
    </filter>
  </defs>
  <g filter="url(#soft)">
    <path d="M 0.0 1080.0 Q 25.3 1065.6 52.5 1042.7" fill="none" stroke="#7B9BAD" stroke-width="2.13" stroke-linecap="round" opacity="0.8"/>
    <path d="M 0.0 1080.0 Q 21.4 1058.2 42.6 1030.0" fill="none" stroke="#7B9BAD" stroke-width="2.07" stroke-linecap="round" opacity="0.8"/>
    <path d="M 0.0 0.0 Q 29.2 14.8 39.7 32.7" fill="none" stroke="#C9A227" stroke-width="1.96" stroke-linecap="round" opacity="0.8"/>
    <path d="M 42.6 1030.0 Q 56.7 1009.3 70.7 990.5" fill="none" stroke="#7B9BAD" stroke-width="1.83" stroke-linecap="round" opacity="0.8"/>
    <path d="M 52.5 1042.7 Q 78.0 1045.2 92.0 1028.2" fill="none" stroke="#7B9BAD" stroke-width="1.82" stroke-linecap="round" opacity="0.8"/>
    <path d="M 1920.0 1080.0 Q 1899.7 1066.5 1888.5 1040.8" fill="none" stroke="#C9A227" stroke-width="1.77" stroke-linecap="round" opacity="0.8"/>
    <path d="M 39.7 32.7 Q 49.8 37.4 64.1 42.1" fill="none" stroke="#C9A227" stroke-width="1.76" stroke-linecap="round" opacity="0.8"/>
    <path d="M 92.0 1028.2 Q 95.1 1028.0 113.9 1014.9" fill="none" stroke="#7B9BAD" stroke-width="1.56" stroke-linecap="round" opacity="0.8"/>
    <path d="M 70.7 990.5 Q 73.3 995.4 83.5 981.1" fill="none" stroke="#7B9BAD" stroke-width="1.54" stroke-linecap="round" opacity="0.8"/>
    <path d="M 1920.0 0.0 Q 1910.7 8.5 1879.5 33.2" fill="none" stroke="#7B9BAD" stroke-width="1.51" stroke-linecap="round" opacity="0.8"/>
    <path d="M 113.9 1014.9 Q 122.2 1008.3 126.2 1007.7" fill="none" stroke="#7B9BAD" stroke-width="1.30" stroke-linecap="round" opacity="0.8"/>
    <path d="M 1888.5 1040.8 Q 1868.9 1024.2 1856.1 1014.9" fill="none" stroke="#C9A227" stroke-width="1.28" stroke-linecap="round" opacity="0.8"/>
    <path d="M 1879.5 33.2 Q 1864.0 29.5 1844.5 44.4" fill="none" stroke="#7B9BAD" stroke-width="1.25" stroke-linecap="round" opacity="0.8"/>
    <path d="M 64.1 42.1 Q 75.9 46.7 99.3 54.1" fill="none" stroke="#C9A227" stroke-width="1.25" stroke-linecap="round" opacity="0.8"/>
    <path d="M 83.5 981.1 Q 97.4 981.7 104.4 966.7" fill="none" stroke="#7B9BAD" stroke-width="1.23" stroke-linecap="round" opacity="0.8"/>
    <path d="M 1844.5 44.4 Q 1847.8 52.7 1829.5 59.1" fill="none" stroke="#7B9BAD" stroke-width="1.13" stroke-linecap="round" opacity="0.8"/>
    <path d="M 99.3 54.1 Q 96.7 42.8 114.0 52.7" fill="none" stroke="#C9A227" stroke-width="1.10" stroke-linecap="round" opacity="0.8"/>
    <path d="M 1856.1 1014.9 Q 1840.6 1000.2 1843.1 996.9" fill="none" stroke="#C9A227" stroke-width="1.08" stroke-linecap="round" opacity="0.8"/>
    <path d="M 52.5 1042.7 Q 63.8 1025.5 92.1 1027.8" fill="none" stroke="#7B9BAD" stroke-width="1.01" stroke-linecap="round" opacity="0.8"/>
    <path d="M 126.2 1007.7 Q 138.1 998.1 135.8 1001.5" fill="none" stroke="#7B9BAD" stroke-width="0.96" stroke-linecap="round" opacity="0.8"/>
    <path d="M 104.4 966.7 Q 113.1 957.9 110.8 960.2" fill="none" stroke="#7B9BAD" stroke-width="0.94" stroke-linecap="round" opacity="0.8"/>
    <path d="M 1829.5 59.1 Q 1821.2 65.2 1811.8 67.3" fill="none" stroke="#7B9BAD" stroke-width="0.89" stroke-linecap="round" opacity="0.8"/>
    <path d="M 114.0 52.7 Q 108.6 57.6 121.7 53.0" fill="none" stroke="#C9A227" stroke-width="0.84" stroke-linecap="round" opacity="0.8"/>
    <path d="M 92.0 1028.2 Q 103.1 1027.9 98.5 1014.2" fill="none" stroke="#7B9BAD" stroke-width="0.83" stroke-linecap="round" opacity="0.8"/>
    <path d="M 1843.1 996.9 Q 1832.8 991.7 1839.3 983.2" fill="none" stroke="#C9A227" stroke-width="0.82" stroke-linecap="round" opacity="0.8"/>
    <path d="M 70.7 990.5 Q 82.9 995.6 107.3 988.9" fill="none" stroke="#7B9BAD" stroke-width="0.82" stroke-linecap="round" opacity="0.8"/>
    <path d="M 92.1 1027.8 Q 108.6 1039.5 130.0 1026.4" fill="none" stroke="#7B9BAD" stroke-width="0.79" stroke-linecap="round" opacity="0.8"/>
    <path d="M 1811.8 67.3 Q 1803.6 73.4 1801.9 72.8" fill="none" stroke="#7B9BAD" stroke-width="0.76" stroke-linecap="round" opacity="0.8"/>
    <path d="M 1839.3 983.2 Q 1840.0 990.1 1835.8 977.4" fill="none" stroke="#C9A227" stroke-width="0.74" stroke-linecap="round" opacity="0.8"/>
    <path d="M 1856.1 1014.9 Q 1862.3 989.6 1862.4 977.9" fill="none" stroke="#C9A227" stroke-width="0.70" stroke-linecap="round" opacity="0.8"/>
    <path d="M 113.9 1014.9 Q 111.4 1017.4 119.0 999.8" fill="none" stroke="#7B9BAD" stroke-width="0.67" stroke-linecap="round" opacity="0.8"/>
    <path d="M 130.0 1026.4 Q 132.8 1028.8 154.1 1017.7" fill="none" stroke="#7B9BAD" stroke-width="0.66" stroke-linecap="round" opacity="0.8"/>
    <path d="M 1829.5 59.1 Q 1835.3 69.5 1823.2 72.4" fill="none" stroke="#7B9BAD" stroke-width="0.61" stroke-linecap="round" opacity="0.8"/>
    <path d="M 107.3 988.9 Q 124.9 984.9 123.2 982.3" fill="none" stroke="#7B9BAD" stroke-width="0.60" stroke-linecap="round" opacity="0.8"/>
    <path d="M 119.0 999.8 Q 126.0 995.0 121.3 990.9" fill="none" stroke="#7B9BAD" stroke-width="0.60" stroke-linecap="round" opacity="0.8"/>
    <path d="M 1843.1 996.9 Q 1846.1 985.1 1845.9 981.4" fill="none" stroke="#C9A227" stroke-width="0.59" stroke-linecap="round" opacity="0.8"/>
    <path d="M 98.5 1014.2 Q 89.2 1003.1 98.5 999.5" fill="none" stroke="#7B9BAD" stroke-width="0.58" stroke-linecap="round" opacity="0.8"/>
    <path d="M 1862.4 977.9 Q 1859.0 958.1 1856.2 954.8" fill="none" stroke="#C9A227" stroke-width="0.58" stroke-linecap="round" opacity="0.8"/>
    <path d="M 104.4 966.7 Q 107.2 959.0 111.1 968.6" fill="none" stroke="#7B9BAD" stroke-width="0.55" stroke-linecap="round" opacity="0.8"/>
    <path d="M 154.1 1017.7 Q 164.0 1014.7 161.5 1013.5" fill="none" stroke="#7B9BAD" stroke-width="0.54" stroke-linecap="round" opacity="0.8"/>
    <path d="M 1845.9 981.4 Q 1837.2 984.4 1844.3 973.8" fill="none" stroke="#C9A227" stroke-width="0.52" stroke-linecap="round" opacity="0.8"/>
    <path d="M 123.2 982.3 Q 127.2 977.4 131.4 980.3" fill="none" stroke="#7B9BAD" stroke-width="0.52" stroke-linecap="round" opacity="0.8"/>
    <path d="M 1811.8 67.3 Q 1808.6 67.9 1801.8 63.4" fill="none" stroke="#7B9BAD" stroke-width="0.51" stroke-linecap="round" opacity="0.8"/>
    <path d="M 98.5 999.5 Q 101.0 996.5 97.8 992.6" fill="none" stroke="#7B9BAD" stroke-width="0.51" stroke-linecap="round" opacity="0.8"/>
    <path d="M 1823.2 72.4 Q 1823.5 78.7 1817.6 78.5" fill="none" stroke="#7B9BAD" stroke-width="0.46" stroke-linecap="round" opacity="0.8"/>
    <path d="M 1856.2 954.8 Q 1867.0 957.4 1856.9 946.4" fill="none" stroke="#C9A227" stroke-width="0.42" stroke-linecap="round" opacity="0.8"/>
    <path d="M 1839.3 983.2 Q 1840.2 974.4 1838.4 972.7" fill="none" stroke="#C9A227" stroke-width="0.38" stroke-linecap="round" opacity="0.8"/>
    <path d="M 1862.4 977.9 Q 1872.7 981.8 1882.9 964.9" fill="none" stroke="#C9A227" stroke-width="0.34" stroke-linecap="round" opacity="0.8"/>
    <path d="M 1856.2 954.8 Q 1859.4 951.4 1846.3 946.1" fill="none" stroke="#C9A227" stroke-width="0.33" stroke-linecap="round" opacity="0.8"/>
    <circle cx="121.7" cy="53.0" r="1.3" fill="#7B9BAD" opacity="0.7"/>
    <circle cx="1811.8" cy="67.3" r="1.3" fill="#C9A227" opacity="0.7"/>
    <circle cx="1801.9" cy="72.8" r="1.1" fill="#C9A227" opacity="0.7"/>
    <circle cx="111.1" cy="968.6" r="0.8" fill="#C9A227" opacity="0.7"/>
    <circle cx="92.0" cy="1028.2" r="2.7" fill="#C9A227" opacity="0.7"/>
    <circle cx="113.9" cy="1014.9" r="2.3" fill="#C9A227" opacity="0.7"/>
    <circle cx="126.2" cy="1007.7" r="1.9" fill="#C9A227" opacity="0.7"/>
    <circle cx="154.1" cy="1017.7" r="1.0" fill="#C9A227" opacity="0.7"/>
    <circle cx="161.5" cy="1013.5" r="0.8" fill="#C9A227" opacity="0.7"/>
    <circle cx="1839.3" cy="983.2" r="1.2" fill="#7B9BAD" opacity="0.7"/>
    <circle cx="1838.4" cy="972.7" r="0.6" fill="#7B9BAD" opacity="0.7"/>
    <circle cx="1844.3" cy="973.8" r="0.8" fill="#7B9BAD" opacity="0.7"/>
    <circle cx="1856.9" cy="946.4" r="0.6" fill="#7B9BAD" opacity="0.7"/>
  </g>
</svg>