<svg xmlns="http://www.w3.org/2000/svg" viewBox="0 0 1920 1080" preserveAspectRatio="xMidYMid slice">
  <defs>
    <!-- Slight blur for organic softness -->
    <filter id="soft" x="-20%" y="-20%" width="140%" height="140%">
      <feGaussianBlur stdDeviation="0.5" />
    </filter>
  </defs>
  <g filter="url(#soft)">
    <path d="M 0.0 0.0 Q 16.7 1.7 18.7 19.4" fill="none" stroke="#C9A227" stroke-width="2.44" stroke-linecap="round" opacity="0.6"/>
    <path d="M 1920.0 0.0 Q 1905.7 32.3 1885.1 55.8" fill="none" stroke="#7B9BAD" stroke-width="2.23" stroke-linecap="round" opacity="0.6"/>
    <path d="M 0.0 1080.0 Q 18.8 1070.0 28.9 1046.4" fill="none" stroke="#7B9BAD" stroke-width="2.12" stroke-linecap="round" opacity="0.6"/>
    <path d="M 1920.0 1080.0 Q 1891.1 1054.7 1873.9 1036.3" fill="none" stroke="#C9A227" stroke-width="2.03" stroke-linecap="round" opacity="0.6"/>
    <path d="M 1885.1 55.8 Q 1889.4 75.4 1878.8 78.9" fill="none" stroke="#7B9BAD" stroke-width="2.00" stroke-linecap="round" opacity="0.6"/>
    <path d="M 0.0 1080.0 Q 6.8 1042.1 29.2 1025.4" fill="none" stroke="#7B9BAD" stroke-width="1.95" stroke-linecap="round" opacity="0.6"/>
    <path d="M 1920.0 0.0 Q 1910.5 9.7 1883.7 24.1" fill="none" stroke="#7B9BAD" stroke-width="1.89" stroke-linecap="round" opacity="0.6"/>
    <path d="M 0.0 0.0 Q -1.4 13.4 16.6 19.2" fill="none" stroke="#C9A227" stroke-width="1.89" stroke-linecap="round" opacity="0.6"/>
    <path d="M 28.9 1046.4 Q 38.8 1024.8 50.4 1006.0" fill="none" stroke="#7B9BAD" stroke-width="1.84" stroke-linecap="round" opacity="0.6"/>
    <path d="M 18.7 19.4 Q 21.0 20.2 33.7 34.4" fill="none" stroke="#C9A227" stroke-width="1.78" stroke-linecap="round" opacity="0.6"/>
    <path d="M 1878.8 78.9 Q 1869.1 92.5 1864.2 101.8" fill="none" stroke="#7B9BAD" stroke-width="1.75" stroke-linecap="round" opacity="0.6"/>
    <path d="M 1873.9 1036.3 Q 1859.7 1022.8 1844.1 1002.7" fill="none" stroke="#C9A227" stroke-width="1.70" stroke-linecap="round" opacity="0.6"/>
    <path d="M 1883.7 24.1 Q 1866.3 36.2 1862.5 41.0" fill="none" stroke="#7B9BAD" stroke-width="1.57" stroke-linecap="round" opacity="0.6"/>
    <path d="M 29.2 1025.4 Q 42.6 1021.1 58.2 1010.0" fill="none" stroke="#7B9BAD" stroke-width="1.51" stroke-linecap="round" opacity="0.6"/>
    <path d="M 50.4 1006.0 Q 54.1 988.0 73.5 987.6" fill="none" stroke="#7B9BAD" stroke-width="1.46" stroke-linecap="round" opacity="0.6"/>
    <path d="M 1864.2 101.8 Q 1854.0 105.4 1853.6 124.4" fill="none" stroke="#7B9BAD" stroke-width="1.46" stroke-linecap="round" opacity="0.6"/>
    <path d="M 16.6 19.2 Q 30.6 34.5 43.3 57.5" fill="none" stroke="#C9A227" stroke-width="1.45" stroke-linecap="round" opacity="0.6"/>
    <path d="M 1862.5 41.0 Q 1849.3 52.2 1839.5 50.5" fill="none" stroke="#7B9BAD" stroke-width="1.39" stroke-linecap="round" opacity="0.6"/>
    <path d="M 1844.1 1002.7 Q 1831.2 975.4 1824.8 968.7" fill="none" stroke="#C9A227" stroke-width="1.39" stroke-linecap="round" opacity="0.6"/>
    <path d="M 33.7 34.4 Q 55.0 42.4 56.7 55.2" fill="none" stroke="#C9A227" stroke-width="1.30" stroke-linecap="round" opacity="0.6"/>
    <path d="M 1853.6 124.4 Q 1858.2 123.2 1847.6 132.0" fill="none" stroke="#7B9BAD" stroke-width="1.28" stroke-linecap="round" opacity="0.6"/>
    <path d="M 18.7 19.4 Q 43.2 18.3 70.7 11.4" fill="none" stroke="#C9A227" stroke-width="1.28" stroke-linecap="round" opacity="0.6"/>
    <path d="M 43.3 57.5 Q 56.1 74.6 49.1 72.9" fill="none" stroke="#C9A227" stroke-width="1.24" stroke-linecap="round" opacity="0.6"/>
    <path d="M 58.2 1010.0 Q 75.7 1003.5 87.2 991.6" fill="none" stroke="#7B9BAD" stroke-width="1.23" stroke-linecap="round" opacity="0.6"/>
    <path d="M 1878.8 78.9 Q 1885.2 87.1 1889.2 101.8" fill="none" stroke="#7B9BAD" stroke-width="1.18" stroke-linecap="round" opacity="0.6"/>
    <path d="M 1839.5 50.5 Q 1830.7 57.3 1821.9 59.1" fill="none" stroke="#7B9BAD" stroke-width="1.12" stroke-linecap="round" opacity="0.6"/>
    <path d="M 1883.7 24.1 Q 1888.8 43.8 1877.3 44.7" fill="none" stroke="#7B9BAD" stroke-width="1.12" stroke-linecap="round" opacity="0.6"/>
    <path d="M 1878.8 78.9 Q 1861.8 81.3 1852.8 97.5" fill="none" stroke="#7B9BAD" stroke-width="1.10" stroke-linecap="round" opacity="0.6"/>
    <path d="M 73.5 987.6 Q 85.8 976.7 85.9 973.5" fill="none" stroke="#7B9BAD" stroke-width="1.05" stroke-linecap="round" opacity="0.6"/>
    <path d="M 87.2 991.6 Q 91.7 992.0 109.7 978.1" fill="none" stroke="#7B9BAD" stroke-width="1.01" stroke-linecap="round" opacity="0.6"/>
    <path d="M 49.1 72.9 Q 46.4 86.5 53.9 91.3" fill="none" stroke="#C9A227" stroke-width="1.00" stroke-linecap="round" opacity="0.6"/>
    <path d="M 1824.8 968.7 Q 1825.0 964.2 1814.5 957.2" fill="none" stroke="#C9A227" stroke-width="0.98" stroke-linecap="round" opacity="0.6"/>
    <path d="M 1844.1 1002.7 Q 1828.8 1003.3 1808.5 1002.4" fill="none" stroke="#C9A227" stroke-width="0.97" stroke-linecap="round" opacity="0.6"/>
    <path d="M 56.7 55.2 Q 54.9 61.0 63.9 75.9" fill="none" stroke="#C9A227" stroke-width="0.92" stroke-linecap="round" opacity="0.6"/>
    <path d="M 1877.3 44.7 Q 1865.6 51.2 1858.5 69.7" fill="none" stroke="#7B9BAD" stroke-width="0.91" stroke-linecap="round" opacity="0.6"/>
    <path d="M 1889.2 101.8 Q 1882.7 99.8 1893.6 113.9" fill="none" stroke="#7B9BAD" stroke-width="0.91" stroke-linecap="round" opacity="0.6"/>
    <path d="M 70.7 11.4 Q 82.4 12.0 88.2 10.1" fill="none" stroke="#C9A227" stroke-width="0.90" stroke-linecap="round" opacity="0.6"/>
    <path d="M 1821.9 59.1 Q 1813.5 54.8 1813.7 61.6" fill="none" stroke="#7B9BAD" stroke-width="0.87" stroke-linecap="round" opacity="0.6"/>
    <path d="M 85.9 973.5 Q 82.8 977.9 87.7 965.7" fill="none" stroke="#7B9BAD" stroke-width="0.83" stroke-linecap="round" opacity="0.6"/>
    <path d="M 109.7 978.1 Q 115.3 983.0 114.7 976.6" fill="none" stroke="#7B9BAD" stroke-width="0.83" stroke-linecap="round" opacity="0.6"/>
    <path d="M 33.7 34.4 Q 39.9 33.9 61.0 37.6" fill="none" stroke="#C9A227" stroke-width="0.81" stroke-linecap="round" opacity="0.6"/>
    <path d="M 1808.5 1002.4 Q 1793.6 997.7 1786.3 1001.9" fill="none" stroke="#C9A227" stroke-width="0.81" stroke-linecap="round" opacity="0.6"/>
    <path d="M 1852.8 97.5 Q 1843.0 105.3 1843.3 105.7" fill="none" stroke="#7B9BAD" stroke-width="0.80" stroke-linecap="round" opacity="0.6"/>
    <path d="M 1839.5 50.5 Q 1837.7 49.2 1821.9 43.3" fill="none" stroke="#7B9BAD" stroke-width="0.80" stroke-linecap="round" opacity="0.6"/>
    <path d="M 63.9 75.9 Q 76.2 88.7 68.5 81.9" fill="none" stroke="#C9A227" stroke-width="0.80" stroke-linecap="round" opacity="0.6"/>
    <path d="M 1814.5 957.2 Q 1812.8 959.0 1804.8 949.5" fill="none" stroke="#C9A227" stroke-width="0.77" stroke-linecap="round" opacity="0.6"/>
    <path d="M 1893.6 113.9 Q 1887.5 118.8 1900.8 124.3" fill="none" stroke="#7B9BAD" stroke-width="0.76" stroke-linecap="round" opacity="0.6"/>
    <path d="M 1853.6 124.4 Q 1851.7 115.1 1846.1 124.6" fill="none" stroke="#7B9BAD" stroke-width="0.76" stroke-linecap="round" opacity="0.6"/>
    <path d="M 58.2 1010.0 Q 75.1 1002.9 89.1 1000.8" fill="none" stroke="#7B9BAD" stroke-width="0.74" stroke-linecap="round" opacity="0.6"/>
    <path d="M 87.2 991.6 Q 101.6 995.7 113.5 993.5" fill="none" stroke="#7B9BAD" stroke-width="0.74" stroke-linecap="round" opacity="0.6"/>
    <path d="M 53.9 91.3 Q 56.5 93.9 54.5 99.7" fill="none" stroke="#C9A227" stroke-width="0.73" stroke-linecap="round" opacity="0.6"/>
    <path d="M 1786.3 1001.9 Q 1774.2 1009.6 1775.6 1006.4" fill="none" stroke="#C9A227" stroke-width="0.72" stroke-linecap="round" opacity="0.6"/>
    <path d="M 61.0 37.6 Q 60.5 33.9 76.9 37.4" fill="none" stroke="#C9A227" stroke-width="0.70" stroke-linecap="round" opacity="0.6"/>
    <path d="M 1858.5 69.7 Q 1857.5 83.6 1856.4 85.4" fill="none" stroke="#7B9BAD" stroke-width="0.66" stroke-linecap="round" opacity="0.6"/>
    <path d="M 88.2 10.1 Q 99.0 12.0 105.6 6.5" fill="none" stroke="#C9A227" stroke-width="0.64" stroke-linecap="round" opacity="0.6"/>
    <path d="M 1862.5 41.0 Q 1834.7 28.9 1824.8 38.3" fill="none" stroke="#7B9BAD" stroke-width="0.63" stroke-linecap="round" opacity="0.6"/>
    <path d="M 76.9 37.4 Q 73.3 27.9 84.5 36.2" fill="none" stroke="#C9A227" stroke-width="0.63" stroke-linecap="round" opacity="0.6"/>
    <path d="M 89.1 1000.8 Q 93.5 1008.8 105.1 1001.4" fill="none" stroke="#7B9BAD" stroke-width="0.61" stroke-linecap="round" opacity="0.6"/>
    <path d="M 1821.9 43.3 Q 1826.3 40.4 1813.3 39.7" fill="none" stroke="#7B9BAD" stroke-width="0.60" stroke-linecap="round" opacity="0.6"/>
    <path d="M 1889.2 101.8 Q 1878.8 102.2 1884.7 113.9" fill="none" stroke="#7B9BAD" stroke-width="0.59" stroke-linecap="round" opacity="0.6"/>
    <path d="M 1843.3 105.7 Q 1846.8 115.0 1835.1 110.1" fill="none" stroke="#7B9BAD" stroke-width="0.59" stroke-linecap="round" opacity="0.6"/>
    <path d="M 1814.5 957.2 Q 1802.5 947.1 1807.8 954.4" fill="none" stroke="#C9A227" stroke-width="0.58" stroke-linecap="round" opacity="0.6"/>
    <path d="M 1856.4 85.4 Q 1859.2 96.4 1853.9 93.4" fill="none" stroke="#7B9BAD" stroke-width="0.58" stroke-linecap="round" opacity="0.6"/>
    <path d="M 113.5 993.5 Q 122.2 993.0 122.7 994.5" fill="none" stroke="#7B9BAD" stroke-width="0.58" stroke-linecap="round" opacity="0.6"/>
    <path d="M 1814.5 957.2 Q 1818.4 960.1 1816.4 950.8" fill="none" stroke="#C9A227" stroke-width="0.58" stroke-linecap="round" opacity="0.6"/>
    <path d="M 1889.2 101.8 Q 1904.2 100.7 1907.5 108.2" fill="none" stroke="#7B9BAD" stroke-width="0.57" stroke-linecap="round" opacity="0.6"/>
    <path d="M 105.6 6.5 Q 120.1 7.8 117.4 3.4" fill="none" stroke="#C9A227" stroke-width="0.53" stroke-linecap="round" opacity="0.6"/>
    <path d="M 49.1 72.9 Q 42.2 90.4 44.9 90.5" fill="none" stroke="#C9A227" stroke-width="0.52" stroke-linecap="round" opacity="0.6"/>
    <path d="M 105.1 1001.4 Q 116.8 995.1 117.7 1004.6" fill="none" stroke="#7B9BAD" stroke-width="0.51" stroke-linecap="round" opacity="0.6"/>
    <path d="M 1824.8 38.3 Q 1808.9 34.2 1805.4 39.4" fill="none" stroke="#7B9BAD" stroke-width="0.50" stroke-linecap="round" opacity="0.6"/>
    <path d="M 1884.7 113.9 Q 1882.9 114.1 1881.8 119.7" fill="none" stroke="#7B9BAD" stroke-width="0.48" stroke-linecap="round" opacity="0.6"/>
    <path d="M 85.9 973.5 Q 77.7 967.4 84.2 962.9" fill="none" stroke="#7B9BAD" stroke-width="0.47" stroke-linecap="round" opacity="0.6"/>
    <path d="M 109.7 978.1 Q 103.4 982.4 115.8 967.5" fill="none" stroke="#7B9BAD" stroke-width="0.46" stroke-linecap="round" opacity="0.6"/>
    <path d="M 85.9 973.5 Q 88.7 973.9 94.9 967.1" fill="none" stroke="#7B9BAD" stroke-width="0.46" stroke-linecap="round" opacity="0.6"/>
    <path d="M 1843.3 105.7 Q 1841.7 120.7 1842.0 117.6" fill="none" stroke="#7B9BAD" stroke-width="0.45" stroke-linecap="round" opacity="0.6"/>
    <path d="M 1858.5 69.7 Q 1845.0 77.0 1843.3 78.5" fill="none" stroke="#7B9BAD" stroke-width="0.43" stroke-linecap="round" opacity="0.6"/>
    <path d="M 1821.9 43.3 Q 1819.9 32.7 1817.4 37.7" fill="none" stroke="#7B9BAD" stroke-width="0.41" stroke-linecap="round" opacity="0.6"/>
    <path d="M 1907.5 108.2 Q 1913.0 108.9 1919.6 110.7" fill="none" stroke="#7B9BAD" stroke-width="0.41" stroke-linecap="round" opacity="0.6"/>
    <path d="M 44.9 90.5 Q 38.2 105.9 43.5 103.4" fill="none" stroke="#C9A227" stroke-width="0.38" stroke-linecap="round" opacity="0.6"/>
    <path d="M 1843.3 78.5 Q 1841.1 71.5 1837.1 83.4" fill="none" stroke="#7B9BAD" stroke-width="0.37" stroke-linecap="round" opacity="0.6"/>
    <path d="M 1805.4 39.4 Q 1808.9 42.0 1795.9 42.6" fill="none" stroke="#7B9BAD" stroke-width="0.37" stroke-linecap="round" opacity="0.6"/>
    <path d="M 1856.4 85.4 Q 1858.4 91.0 1861.2 89.6" fill="none" stroke="#7B9BAD" stroke-width="0.36" stroke-linecap="round" opacity="0.6"/>
    <path d="M 61.0 37.6 Q 68.6 46.1 75.2 33.8" fill="none" stroke="#C9A227" stroke-width="0.33" stroke-linecap="round" opacity="0.6"/>
    <circle cx="56.7" cy="55.2" r="2.0" fill="#7B9BAD" opacity="0.5"/>
    <circle cx="68.5" cy="81.9" r="1.2" fill="#7B9BAD" opacity="0.5"/>
    <circle cx="88.2" cy="10.1" r="1.3" fill="#7B9BAD" opacity="0.5"/>
    <circle cx="117.4" cy="3.4" r="0.8" fill="#7B9BAD" opacity="0.5"/>
    <circle cx="49.1" cy="72.9" r="1.9" fill="#7B9BAD" opacity="0.5"/>
    <circle cx="53.9" cy="91.3" r="1.5" fill="#7B9BAD" opacity="0.5"/>
    <circle cx="1864.2" cy="101.8" r="2.6" fill="#C9A227" opacity="0.5"/>
    <circle cx="1847.6" cy="132.0" r="1.9" fill="#C9A227" opacity="0.5"/>
    <circle cx="1846.1" cy="124.6" r="1.1" fill="#C9A227" opacity="0.5"/>
    <circle cx="1843.3" cy="105.7" r="1.2" fill="#C9A227" opacity="0.5"/>
    <circle cx="1842.0" cy="117.6" r="0.7" fill="#C9A227" opacity="0.5"/>
    <circle cx="1889.2" cy="101.8" r="1.8" fill="#C9A227" opacity="0.5"/>
    <circle cx="1884.7" cy="113.9" r="0.9" fill="#C9A227" opacity="0.5"/>
    <circle cx="1919.6" cy="110.7" r="0.6" fill="#C9A227" opacity="0.5"/>
    <circle cx="1839.5" cy="50.5" r="2.1" fill="#C9A227" opacity="0.5"/>
    <circle cx="1813.7" cy="61.6" r="1.3" fill="#C9A227" opacity="0.5"/>
    <circle cx="1817.4" cy="37.7" r="0.6" fill="#C9A227" opacity="0.5"/>
    <circle cx="1824.8" cy="38.3" r="0.9" fill="#C9A227" opacity="0.5"/>
    <circle cx="1795.9" cy="42.6" r="0.6" fill="#C9A227" opacity="0.5"/>
    <circle cx="1858.5" cy="69.7" r="1.4" fill="#C9A227" opacity="0.5"/>
    <circle cx="1837.1" cy="83.4" r="0.6" fill="#C9A227" opacity="0.5"/>
    <circle cx="114.7" cy="976.6" r="1.2" fill="#C9A227" opacity="0.5"/>
    <circle cx="113.5" cy="993.5" r="1.1" fill="#C9A227" opacity="0.5"/>
    <circle cx="122.7" cy="994.5" r="0.9" fill="#C9A227" opacity="0.5"/>
    <circle cx="105.1" cy="1001.4" r="0.9" fill="#C9A227" opacity="0.5"/>
    <circle cx="50.4" cy="1006.0" r="2.8" fill="#C9A227" opacity="0.5"/>
    <circle cx="73.5" cy="987.6" r="2.2" fill="#C9A227" opacity="0.5"/>
    <circle cx="1814.5" cy="957.2" r="1.5" fill="#7B9BAD" opacity="0.5"/>
    <circle cx="1804.8" cy="949.5" r="1.2" fill="#7B9BAD" opacity="0.5"/>
    <circle cx="1816.4" cy="950.8" r="0.9" fill="#7B9BAD" opacity="0.5"/>
    <circle cx="1807.8" cy="954.4" r="0.9" fill="#7B9BAD" opacity="0.5"/>
    <circle cx="1775.6" cy="1006.4" r="1.1" fill="#7B9BAD" opacity="0.5"/>
  </g>
</svg>